<svg xmlns="http://www.w3.org/2000/svg" viewBox="0 0 24 24" fill="#96588A">
<path d="M12.041 0C5.393 0 0 5.393 0 12.041s5.393 12.041 12.041 12.041 12.041-5.393 12.041-12.041S18.689 0 12.041 0zm6.748 7.172c-.348.123-3.613 1.336-4.5 1.516-.267.053-.534.098-.801.098-.626 0-1.224-.244-1.667-.687-.443-.443-.687-1.041-.687-1.667 0-.267.045-.534.098-.801.18-.887 1.393-4.152 1.516-4.5.123-.348.447-.585.795-.585.348 0 .672.237.795.585.123.348 1.336 3.613 1.516 4.5.053.267.098.534.098.801 0 .626-.244 1.224-.687 1.667-.443.443-1.041.687-1.667.687-.267 0-.534-.045-.801-.098-.887-.18-4.152-1.393-4.5-1.516-.348-.123-.585-.447-.585-.795 0-.348.237-.672.585-.795.348-.123 3.613-1.336 4.5-1.516.267-.053.534-.098.801-.098.626 0 1.224.244 1.667.687.443.443.687 1.041.687 1.667 0 .267-.045.534-.098.801z"/>
</svg>
