<svg xmlns="http://www.w3.org/2000/svg" viewBox="0 0 24 24" fill="#0073AA">
<path d="M12.158 0.007C5.837 0.007 1.084 4.76 1.084 11.081c0 6.321 4.753 11.074 11.074 11.074 6.321 0 11.074-4.753 11.074-11.074C23.232 4.76 18.479 0.007 12.158 0.007zM12.158 20.657c-5.274 0-9.576-4.302-9.576-9.576s4.302-9.576 9.576-9.576 9.576 4.302 9.576 9.576c0 5.274-4.302 9.576-9.576 9.576z"/>
<path d="M12.158 3.253c-4.302 0-7.828 3.526-7.828 7.828s3.526 7.828 7.828 7.828 7.828-3.526 7.828-7.828-3.526-7.828-7.828-7.828zm0 13.609c-3.19 0-5.781-2.591-5.781-5.781s2.591-5.781 5.781-5.781 5.781 2.591 5.781 5.781-2.591 5.781-5.781 5.781z"/>
<path d="M12.158 6.499c-2.523 0-4.582 2.059-4.582 4.582s2.059 4.582 4.582 4.582 4.582-2.059 4.582-4.582-2.059-4.582-4.582-4.582zm0 7.165c-1.411 0-2.583-1.172-2.583-2.583s1.172-2.583 2.583-2.583 2.583 1.172 2.583 2.583-1.172 2.583-2.583 2.583z"/>
</svg>
